<svg width="1293" height="285" viewBox="0 0 1293 285" fill="none" xmlns="http://www.w3.org/2000/svg">
<path d="M436.92 146.238H407.613V173.751H440.509V181.826H397.744V105.865H438.715V114.239H407.613V138.163H436.92V146.238Z" fill="#66403F"/>
<path d="M474.601 105.865H484.171V173.751H516.768V181.826H474.601V105.865Z" fill="#66403F"/>
<path d="M549.066 105.865H558.935V173.751H591.233V181.826H549.066V105.865Z" fill="#66403F"/>
<path fill-rule="evenodd" clip-rule="evenodd" d="M628.017 181.826H617.849L643.568 105.865H655.231L681.249 181.826H670.782L662.707 157.901L653.138 128.594C651.642 123.51 650.446 119.024 649.25 114.538H648.951C647.954 119.124 646.758 123.709 645.362 128.295L635.792 157.901L628.017 181.826Z" fill="#66403F"/>
<path d="M759.003 105.865H799.974V114.239H768.872V139.36H797.581V147.434H768.872V181.826H759.003V105.865Z" fill="#66403F"/>
<path fill-rule="evenodd" clip-rule="evenodd" d="M830.777 181.826H820.609L846.328 105.865H858.29L884.009 181.826H873.542L865.467 157.901L856.196 128.594C854.402 123.51 853.206 119.024 852.309 114.538H852.01C850.813 119.124 849.517 123.709 848.122 128.295L838.552 157.901L830.777 181.826Z" fill="#66403F"/>
<path d="M915.409 169.864C919.596 172.555 926.175 174.948 932.755 174.948C942.922 174.948 948.605 169.565 948.605 161.789C948.605 154.911 944.717 150.724 934.549 146.836C921.989 142.351 914.512 136.07 914.512 125.304C914.512 113.641 924.082 104.669 939.035 104.669C946.81 104.669 952.492 106.464 955.782 108.557L953.09 116.333C950.698 115.136 945.614 112.744 938.736 112.744C928.269 112.744 924.381 119.024 924.381 124.108C924.381 131.285 928.867 134.874 939.334 138.762C952.193 143.846 958.772 150.126 958.772 161.191C958.772 172.854 950.1 183.022 932.157 183.022C924.979 183.022 916.905 180.929 912.718 178.237L915.409 169.864Z" fill="#66403F"/>
<path d="M1003.33 105.865V137.864H1040.12V105.865H1049.98V181.826H1040.12V146.238H1003.33V181.826H993.463V105.865H1003.33Z" fill="#66403F"/>
<path d="M1098.13 105.865V181.826H1088.26V105.865H1098.13Z" fill="#66403F"/>
<path fill-rule="evenodd" clip-rule="evenodd" d="M1201.31 143.248C1201.31 169.266 1185.46 183.022 1166.32 183.022C1146.28 183.022 1132.22 167.471 1132.22 144.743C1132.22 120.519 1147.18 104.669 1167.21 104.669C1188.15 104.669 1201.31 120.519 1201.31 143.248ZM1142.69 144.444C1142.69 160.593 1151.36 175.247 1166.62 175.247C1182.17 175.247 1191.14 160.892 1191.14 143.547C1191.14 128.594 1183.06 112.744 1166.92 112.744C1150.77 112.744 1142.69 127.697 1142.69 144.444Z" fill="#66403F"/>
<path d="M1235.4 181.826V105.865H1246.16L1270.39 144.444C1276.07 153.415 1280.56 161.191 1284.14 168.966H1284.44C1283.55 158.798 1283.25 149.528 1283.25 137.864V105.865H1292.52V181.826H1282.65L1258.43 143.247C1253.04 134.874 1248.26 126.201 1244.37 118.127H1244.07C1244.37 127.696 1244.67 136.967 1244.67 149.528V181.826H1235.4Z" fill="#66403F"/>
<path d="M398.641 180.928V106.763H437.817V113.342H406.716V139.061H436.023V145.341H406.716V174.648H439.612V180.928H398.641Z" fill="url(#paint0_linear_2_415)"/>
<path d="M475.499 180.928V106.763H483.274V174.648H515.871V180.928H475.499Z" fill="url(#paint1_linear_2_415)"/>
<path d="M549.963 180.928V106.763H558.038V174.648H590.336V180.928H549.963Z" fill="url(#paint2_linear_2_415)"/>
<path d="M671.38 180.928L663.604 157.602L654.035 128.295C652.539 123.51 651.343 119.323 650.446 115.136L649.848 113.641H648.652L648.054 114.538C646.857 119.921 645.661 124.108 644.465 127.996L634.895 157.602L627.12 180.928H619.045L644.166 106.763H654.633L680.053 180.928H671.38Z" fill="url(#paint3_linear_2_415)"/>
<path d="M759.9 180.928V106.763H799.077V113.342H767.975V140.257H796.684V146.537H767.975V180.928H759.9Z" fill="url(#paint4_linear_2_415)"/>
<path d="M874.439 180.928L866.364 157.602L857.093 128.295C855.299 123.51 854.402 119.323 853.206 115.435L852.907 113.641H851.411L851.112 114.538C849.617 119.921 848.421 124.108 847.225 127.996L837.954 157.602L830.178 180.928H821.805L847.225 106.763H857.692L882.812 180.928H874.439Z" fill="url(#paint5_linear_2_415)"/>
<path d="M932.156 182.125C925.577 182.125 918.101 180.331 913.914 177.639L915.708 171.359C920.792 174.051 927.072 175.845 932.755 175.845C942.922 175.845 949.502 170.462 949.502 161.789C949.502 154.612 945.614 150.126 934.848 145.939C921.39 141.454 915.409 134.874 915.409 125.304C915.409 113.641 924.979 105.567 939.035 105.567C946.81 105.567 951.894 107.66 954.586 108.856L952.492 115.137C949.502 113.641 944.717 111.847 938.736 111.847C928.269 111.847 923.484 118.127 923.484 124.108C923.484 132.183 928.867 135.771 939.035 139.659C952.492 144.743 957.875 151.023 957.875 161.191C957.875 173.752 947.707 182.125 932.156 182.125Z" fill="url(#paint6_linear_2_415)"/>
<path d="M1041.01 180.928V145.341H1002.43V180.928H994.36V106.763H1002.43V138.762H1041.01V106.763H1049.09V180.928H1041.01Z" fill="url(#paint7_linear_2_415)"/>
<path d="M1089.16 180.928V106.763H1097.24V180.928H1089.16Z" fill="url(#paint8_linear_2_415)"/>
<path fill-rule="evenodd" clip-rule="evenodd" d="M1166.32 182.125C1146.58 182.125 1133.12 166.873 1133.12 144.743C1133.12 121.716 1147.18 105.567 1167.21 105.567C1187.25 105.567 1200.41 120.819 1200.41 143.248C1200.41 166.873 1186.95 182.125 1166.32 182.125ZM1166.92 111.847C1149.57 111.847 1141.79 128.295 1141.79 144.444C1141.79 159.995 1150.17 176.144 1166.62 176.144C1181.57 176.144 1192.04 162.686 1192.04 143.547C1192.04 128.295 1183.96 111.847 1166.92 111.847Z" fill="url(#paint9_linear_2_415)"/>
<path d="M1282.95 180.928L1259.32 142.949C1253.04 132.781 1248.56 124.706 1244.97 117.529L1244.67 116.931L1242.88 117.529L1243.17 118.127C1243.47 127.697 1243.77 136.668 1243.77 149.528V180.928H1236.3V106.763H1245.57L1269.79 144.743C1275.17 153.415 1279.66 161.49 1283.25 169.265L1283.85 170.163L1285.04 169.564L1285.34 168.966C1284.44 158.499 1284.14 148.93 1284.14 137.865V106.763H1291.62V180.928H1282.95Z" fill="url(#paint10_linear_2_415)"/>
<path fill-rule="evenodd" clip-rule="evenodd" d="M285 109.753L248.216 146.238C233.562 160.892 214.124 168.966 193.489 168.966C174.349 168.966 156.705 162.387 142.649 150.126L113.342 179.433C98.0901 194.386 78.3525 201.862 58.6148 201.862C38.5781 201.862 18.8404 194.386 3.58852 179.433L0 175.546L36.7838 138.762C51.1385 124.108 70.8761 116.033 91.511 116.033C110.351 116.033 127.996 122.912 142.35 135.173L171.359 105.866C201.563 75.661 250.908 75.661 281.112 105.866L285 109.753ZM134.575 142.649C122.613 132.482 107.361 126.8 91.511 126.8C73.5676 126.8 56.8205 133.977 44.2602 146.537L15.5507 175.546C41.5686 197.676 81.044 196.479 105.866 171.658L134.575 142.649ZM269.15 109.753C243.132 87.6232 203.657 88.8195 178.835 113.342L150.126 142.35C162.088 152.817 177.041 158.2 193.19 158.2C211.133 158.2 227.88 151.322 240.441 138.762L269.15 109.753Z" fill="url(#paint11_linear_2_415)"/>
<path style="mix-blend-mode:overlay" opacity="0.3" fill-rule="evenodd" clip-rule="evenodd" d="M285 109.753L248.216 146.238C233.562 160.892 214.124 168.966 193.489 168.966C174.349 168.966 156.705 162.387 142.649 150.126L113.342 179.433C98.0901 194.386 78.3525 201.862 58.6148 201.862C38.5781 201.862 18.8404 194.386 3.58852 179.433L0 175.546L36.7838 138.762C51.1385 124.108 70.8761 116.033 91.511 116.033C110.351 116.033 127.996 122.912 142.35 135.173L171.359 105.866C201.563 75.661 250.908 75.661 281.112 105.866L285 109.753ZM283.804 109.753L280.514 106.464C266.159 92.1091 246.721 84.0346 226.385 84.0346C205.75 84.0346 186.611 92.1091 172.256 106.464L142.35 136.369L141.752 135.771C127.697 123.809 110.052 116.931 91.511 116.931C71.1752 116.931 51.7366 125.005 37.382 139.36L1.19611 175.546L4.48583 178.835C18.8405 193.19 37.98 201.264 58.6148 201.264C78.9506 201.264 98.3892 193.19 112.744 178.835L142.649 148.93L143.248 149.528C157.004 161.49 174.947 168.368 193.489 168.368C213.825 168.368 233.263 160.294 247.618 145.939L283.804 109.753ZM270.047 109.155L270.645 109.753L241.338 139.36C228.478 152.219 211.432 159.097 193.489 159.097C177.34 159.097 161.789 153.415 149.827 142.948L148.93 142.35L178.536 113.043C191.395 100.183 208.442 93.3053 226.385 93.3053C242.534 93.3053 258.085 98.9873 270.047 109.155ZM269.449 109.753C243.431 87.6232 203.956 88.8194 179.134 113.641L150.425 142.35C162.387 152.817 177.34 158.2 193.489 158.2C211.133 158.2 227.88 151.322 240.74 138.762L269.449 109.753ZM135.173 142.051L135.771 142.649L106.165 172.256C93.3054 184.816 76.5582 191.994 58.3159 191.994C42.4659 191.994 26.9149 186.311 14.6536 175.845L14.0555 175.247L43.6621 145.64C56.2224 133.08 73.2686 125.902 91.212 125.902C107.361 125.902 122.912 131.584 135.173 142.051ZM134.575 142.649C122.314 132.482 107.361 126.8 91.212 126.8C73.5677 126.8 56.8205 133.678 44.2602 146.238L15.2518 175.247C41.2696 197.676 80.745 196.479 105.567 171.658L134.575 142.649Z" fill="url(#paint12_linear_2_415)"/>
<path style="mix-blend-mode:multiply" d="M248.216 146.238C242.235 152.22 235.656 157.004 228.478 160.593C224.591 159.098 220.703 156.705 218.011 153.416C226.385 150.126 233.861 145.341 240.441 138.762L260.776 118.426C264.066 119.922 267.057 122.613 269.15 125.305L248.216 146.238Z" fill="url(#paint13_linear_2_415)"/>
<path style="mix-blend-mode:multiply" d="M113.342 179.433C100.483 192.293 84.0345 199.47 66.9884 201.564C67.9852 197.576 69.1815 193.688 70.5771 189.9C83.4365 187.807 95.6978 181.527 105.567 171.658L133.379 143.846C135.771 147.435 136.668 152.219 136.07 156.406L113.342 179.433Z" fill="url(#paint14_linear_2_415)"/>
<path style="mix-blend-mode:multiply" d="M36.7838 138.762C44.2602 130.987 53.2318 125.305 63.1007 121.417C66.49 123.809 69.4805 126.601 72.0723 129.791C61.6054 132.781 52.0356 138.463 44.2602 146.239L25.7187 165.079C22.5288 163.085 19.6378 160.793 17.046 158.201L36.7838 138.762Z" fill="url(#paint15_linear_2_415)"/>
<path style="mix-blend-mode:multiply" d="M223.993 83.4363C222.796 87.0249 221.6 90.6135 220.404 94.2022C205.451 95.6975 190.498 101.978 179.134 113.342L170.761 121.715C169.564 121.915 168.468 122.114 167.471 122.314C163.882 122.613 159.696 122.613 156.406 120.818L171.359 105.865C186.013 91.2117 204.853 83.7353 223.993 83.4363Z" fill="url(#paint16_linear_2_415)"/>
<path fill-rule="evenodd" clip-rule="evenodd" d="M179.134 113.342L149.827 142.65C176.144 173.153 175.246 219.507 146.238 248.216L109.454 285L105.567 281.112C75.362 250.908 75.362 201.863 105.567 171.658L134.874 142.351C108.557 111.847 109.753 65.7922 138.463 36.7838L175.247 0L179.134 3.88769C209.339 34.0923 209.339 83.1375 179.134 113.342ZM142.35 150.425L113.342 179.433C88.5203 203.956 87.3241 243.431 109.753 269.748L138.463 240.74C163.284 215.918 164.481 176.443 142.35 150.425ZM171.359 105.866C196.18 81.0442 197.377 41.5688 175.247 15.5509L146.238 44.5594C121.416 69.0819 120.22 108.557 142.649 134.874L171.359 105.866Z" fill="url(#paint17_linear_2_415)"/>
<path style="mix-blend-mode:overlay" opacity="0.3" fill-rule="evenodd" clip-rule="evenodd" d="M179.134 113.342L149.827 142.65C176.144 173.153 175.246 219.507 146.238 248.216L109.454 285L105.567 281.112C75.362 250.908 75.362 201.863 105.567 171.658L134.874 142.351C108.557 111.847 109.753 65.7922 138.463 36.7838L175.247 0L179.134 3.88769C209.339 34.0923 209.339 83.1375 179.134 113.342ZM178.536 112.744C208.442 83.1375 208.442 34.3914 178.536 4.48583L175.247 1.1963L139.061 37.382C110.95 65.7922 109.155 111.548 135.472 141.752L136.07 142.351L106.165 172.256C76.2592 202.162 76.2592 250.609 106.165 280.514L109.454 283.804L145.64 247.618C174.05 219.507 175.546 173.452 149.229 143.248L148.63 142.65L178.536 112.744ZM172.256 106.464L142.649 136.07L142.051 135.173C119.323 108.557 121.117 68.4839 145.64 43.6622L175.247 14.3546L175.845 14.9528C198.573 41.5687 196.779 81.6423 172.256 106.464ZM175.247 15.5509L146.238 44.2602C121.416 69.0818 120.22 108.557 142.649 134.575L171.658 105.866C196.18 81.0442 197.377 41.5688 175.247 15.5509ZM142.949 149.827C165.677 176.443 163.882 216.516 139.36 241.338L109.753 270.645L109.155 270.047C86.4271 243.431 87.9222 203.358 112.744 178.536L142.35 148.93L142.949 149.827ZM142.35 150.425L113.342 179.433C88.5203 204.255 87.3241 243.73 109.753 269.748L138.762 240.74C163.284 216.217 164.481 176.742 142.35 150.425Z" fill="url(#paint18_radial_2_415)"/>
<path style="mix-blend-mode:multiply" d="M146.238 248.216L127.697 266.757C126.899 266.359 126.102 265.86 125.304 265.262C123.211 263.767 121.417 261.673 119.622 259.58L138.463 240.74C145.64 233.562 150.724 225.189 154.014 216.516C156.207 218.111 158.2 219.905 159.995 221.899C160.792 222.896 161.49 223.893 162.088 224.89C158.499 233.263 153.116 241.338 146.238 248.216Z" fill="url(#paint19_linear_2_415)"/>
<path style="mix-blend-mode:multiply" d="M138.463 36.7839L156.406 18.8406C159.696 20.6349 162.686 22.7283 165.378 25.4198L146.238 44.5595C139.36 51.1387 134.575 59.2132 131.285 67.5868C128.893 66.1912 126.6 64.5961 124.407 62.8018C123.61 62.2037 122.912 61.6056 122.314 61.0075C125.902 52.3349 131.285 43.9613 138.463 36.7839Z" fill="url(#paint20_linear_2_415)"/>
<path fill-rule="evenodd" clip-rule="evenodd" d="M179.134 281.112L175.247 285L138.463 248.216C109.753 219.507 108.557 173.153 134.874 142.65L105.567 113.342C75.362 83.1375 75.362 34.0923 105.567 3.88769L109.454 0L146.238 36.7838C175.246 65.7922 176.144 111.847 149.827 142.351L179.134 171.658C209.339 201.863 209.339 250.908 179.134 281.112ZM113.342 105.866L142.35 134.874C164.481 108.557 163.284 69.0819 138.463 44.5594L109.753 15.5509C87.3241 41.5688 88.5203 81.0442 113.342 105.866ZM171.359 179.433L142.649 150.425C120.22 176.443 121.416 215.918 146.238 240.74L175.247 269.748C197.377 243.431 196.18 203.956 171.359 179.433Z" fill="url(#paint21_linear_2_415)"/>
<path style="mix-blend-mode:overlay" opacity="0.3" fill-rule="evenodd" clip-rule="evenodd" d="M179.134 281.112L175.247 285L138.463 248.216C109.753 219.507 108.557 173.153 134.874 142.65L105.567 113.342C75.362 83.1375 75.362 34.0923 105.567 3.88769L109.454 0L146.238 36.7838C175.246 65.7922 176.144 111.847 149.827 142.351L179.134 171.658C209.339 201.863 209.339 250.908 179.134 281.112ZM178.536 172.256L148.63 142.351L149.229 141.752C175.546 111.548 174.05 65.7922 145.64 37.382L109.454 1.1963L106.165 4.48583C76.2592 34.3914 76.2592 83.1375 106.165 112.744L136.07 142.65L135.472 143.248C109.155 173.452 110.95 219.507 139.061 247.618L175.247 283.804L178.536 280.514C208.442 250.609 208.442 202.162 178.536 172.256ZM142.35 136.07L112.744 106.464C87.9222 81.6423 86.4269 41.5687 108.856 14.9528L109.454 14.3546L139.061 43.9612C163.882 68.4838 165.378 108.856 142.949 135.472L142.35 136.07ZM142.35 134.575C164.481 108.557 163.284 69.0818 138.463 44.2602L109.753 15.5509C87.3241 41.5688 88.5203 81.0442 113.342 105.866L142.35 134.575ZM175.845 269.748L175.247 270.645L145.64 241.039C120.818 216.217 119.323 176.144 142.051 149.528L142.649 148.93L172.256 178.237C196.779 203.059 198.573 243.132 175.845 269.748ZM171.658 178.835L142.649 150.126C120.22 176.144 121.416 215.619 146.238 240.441L175.247 269.449C197.377 243.132 196.18 203.657 171.658 178.835Z" fill="url(#paint22_radial_2_415)"/>
<path style="mix-blend-mode:multiply" d="M201.563 233.263C199.171 233.862 196.479 234.46 194.087 234.161C192.891 234.161 191.695 233.961 190.498 233.563C192.592 214.124 186.312 194.087 171.359 179.433L161.191 168.966C163.583 165.976 166.873 164.182 170.462 162.985L179.134 171.658C195.881 188.405 203.358 211.133 201.563 233.263Z" fill="url(#paint23_linear_2_415)"/>
<path style="mix-blend-mode:multiply" d="M83.7356 68.7827C87.723 69.9789 91.6106 71.4742 95.3986 73.2685C98.0901 85.2308 104.071 96.595 113.342 105.866L119.622 112.146C119.622 112.146 125.603 128.893 121.715 129.79L105.567 113.342C93.0063 101.081 85.829 85.2308 83.7356 68.7827Z" fill="url(#paint24_linear_2_415)"/>
<path fill-rule="evenodd" clip-rule="evenodd" d="M285 175.546L281.112 179.433C265.86 194.386 246.123 201.862 226.385 201.862C206.348 201.862 186.611 194.386 171.359 179.433L142.35 150.126C127.996 162.387 110.351 168.966 91.511 168.966C70.8761 168.966 51.1385 160.892 36.7838 146.238L0 109.753L3.58852 105.866C34.0922 75.661 83.1374 75.661 113.342 105.866L142.649 135.173C156.705 122.912 174.349 116.033 193.489 116.033C214.124 116.033 233.562 124.108 248.216 138.762L285 175.546ZM134.575 142.35L105.866 113.641C81.044 88.8194 41.5687 87.6232 15.2518 109.753L44.2602 138.762C56.8205 151.322 73.5676 158.2 91.511 158.2C107.361 158.2 122.613 152.817 134.575 142.35ZM269.449 175.247L240.441 146.537C227.88 133.977 211.133 126.8 193.489 126.8C177.34 126.8 162.387 132.482 150.126 142.649L179.134 171.658C203.956 196.479 243.431 197.676 269.449 175.247Z" fill="url(#paint25_linear_2_415)"/>
<path style="mix-blend-mode:overlay" opacity="0.3" fill-rule="evenodd" clip-rule="evenodd" d="M285 175.546L281.112 179.433C265.86 194.386 246.123 201.862 226.385 201.862C206.348 201.862 186.611 194.386 171.359 179.433L142.35 150.126C127.996 162.387 110.351 168.966 91.511 168.966C70.8761 168.966 51.1385 160.892 36.7838 146.238L0 109.753L3.58852 105.866C34.0922 75.661 83.1374 75.661 113.342 105.866L142.649 135.173C156.705 122.912 174.349 116.033 193.489 116.033C214.124 116.033 233.562 124.108 248.216 138.762L285 175.546ZM283.804 175.546L247.618 139.36C233.263 125.005 213.825 116.931 193.489 116.931C174.947 116.931 157.004 123.51 143.248 135.771L142.649 136.369L112.744 106.464C98.3892 92.1091 78.9506 84.0346 58.6148 84.0346C37.98 84.0346 18.8405 92.1091 4.48583 106.464L1.19611 109.753L37.382 145.939C51.7366 160.294 70.8761 168.368 91.511 168.368C110.052 168.368 127.697 161.49 141.752 149.528L142.35 148.93L172.256 178.835C186.611 193.19 205.75 201.264 226.385 201.264C246.721 201.264 266.159 193.19 280.514 178.835L283.804 175.546ZM106.464 112.744L136.07 142.35L135.173 142.948C123.211 153.415 107.66 159.097 91.511 159.097C73.5676 159.097 56.5214 152.219 43.961 139.36L14.3546 109.753L14.9528 109.155C27.2141 98.6882 42.4658 93.0063 58.6148 93.0063C76.5582 93.0063 93.6043 100.184 106.464 112.744ZM134.874 142.35L105.866 113.342C81.044 88.8195 41.5686 87.6232 15.5507 109.753L44.2602 138.762C57.1196 151.322 73.8667 158.2 91.511 158.2C107.66 158.2 122.613 152.817 134.874 142.35ZM241.338 145.64L270.645 175.247L270.047 175.845C258.085 186.311 242.534 191.994 226.385 191.994C208.442 191.994 191.395 185.115 178.536 172.256L148.93 142.649L149.827 142.051C161.789 131.584 177.34 125.902 193.489 125.902C211.432 125.902 228.478 133.08 241.338 145.64ZM269.449 175.247L240.74 146.238C227.88 133.678 211.133 126.8 193.489 126.8C177.34 126.8 162.387 132.482 150.425 142.649L179.134 171.658C203.956 196.479 243.431 197.676 269.449 175.247Z" fill="url(#paint26_radial_2_415)"/>
<defs>
<linearGradient id="paint0_linear_2_415" x1="445.593" y1="71.7732" x2="445.593" y2="192.592" gradientUnits="userSpaceOnUse">
<stop stop-color="#D2AB86"/>
<stop offset="0.4" stop-color="#B77F52"/>
<stop offset="0.7" stop-color="#DFC19E"/>
<stop offset="1" stop-color="#AC6F41"/>
</linearGradient>
<linearGradient id="paint1_linear_2_415" x1="521.852" y1="71.7732" x2="521.852" y2="192.592" gradientUnits="userSpaceOnUse">
<stop stop-color="#D2AB86"/>
<stop offset="0.4" stop-color="#B77F52"/>
<stop offset="0.7" stop-color="#DFC19E"/>
<stop offset="1" stop-color="#AC6F41"/>
</linearGradient>
<linearGradient id="paint2_linear_2_415" x1="596.317" y1="71.7732" x2="596.317" y2="192.592" gradientUnits="userSpaceOnUse">
<stop stop-color="#D2AB86"/>
<stop offset="0.4" stop-color="#B77F52"/>
<stop offset="0.7" stop-color="#DFC19E"/>
<stop offset="1" stop-color="#AC6F41"/>
</linearGradient>
<linearGradient id="paint3_linear_2_415" x1="686.034" y1="71.7732" x2="686.034" y2="192.592" gradientUnits="userSpaceOnUse">
<stop stop-color="#D2AB86"/>
<stop offset="0.4" stop-color="#B77F52"/>
<stop offset="0.7" stop-color="#DFC19E"/>
<stop offset="1" stop-color="#AC6F41"/>
</linearGradient>
<linearGradient id="paint4_linear_2_415" x1="805.058" y1="71.7732" x2="805.058" y2="192.592" gradientUnits="userSpaceOnUse">
<stop stop-color="#D2AB86"/>
<stop offset="0.4" stop-color="#B77F52"/>
<stop offset="0.7" stop-color="#DFC19E"/>
<stop offset="1" stop-color="#AC6F41"/>
</linearGradient>
<linearGradient id="paint5_linear_2_415" x1="888.793" y1="71.7732" x2="888.793" y2="192.592" gradientUnits="userSpaceOnUse">
<stop stop-color="#D2AB86"/>
<stop offset="0.4" stop-color="#B77F52"/>
<stop offset="0.7" stop-color="#DFC19E"/>
<stop offset="1" stop-color="#AC6F41"/>
</linearGradient>
<linearGradient id="paint6_linear_2_415" x1="963.856" y1="71.7736" x2="963.856" y2="192.592" gradientUnits="userSpaceOnUse">
<stop stop-color="#D2AB86"/>
<stop offset="0.4" stop-color="#B77F52"/>
<stop offset="0.7" stop-color="#DFC19E"/>
<stop offset="1" stop-color="#AC6F41"/>
</linearGradient>
<linearGradient id="paint7_linear_2_415" x1="1055.07" y1="71.7732" x2="1055.07" y2="192.592" gradientUnits="userSpaceOnUse">
<stop stop-color="#D2AB86"/>
<stop offset="0.4" stop-color="#B77F52"/>
<stop offset="0.7" stop-color="#DFC19E"/>
<stop offset="1" stop-color="#AC6F41"/>
</linearGradient>
<linearGradient id="paint8_linear_2_415" x1="1103.22" y1="71.7732" x2="1103.22" y2="192.592" gradientUnits="userSpaceOnUse">
<stop stop-color="#D2AB86"/>
<stop offset="0.4" stop-color="#B77F52"/>
<stop offset="0.7" stop-color="#DFC19E"/>
<stop offset="1" stop-color="#AC6F41"/>
</linearGradient>
<linearGradient id="paint9_linear_2_415" x1="1206.39" y1="71.7736" x2="1206.39" y2="192.592" gradientUnits="userSpaceOnUse">
<stop stop-color="#D2AB86"/>
<stop offset="0.4" stop-color="#B77F52"/>
<stop offset="0.7" stop-color="#DFC19E"/>
<stop offset="1" stop-color="#AC6F41"/>
</linearGradient>
<linearGradient id="paint10_linear_2_415" x1="1297.6" y1="71.7732" x2="1297.6" y2="192.592" gradientUnits="userSpaceOnUse">
<stop stop-color="#D2AB86"/>
<stop offset="0.4" stop-color="#B77F52"/>
<stop offset="0.7" stop-color="#DFC19E"/>
<stop offset="1" stop-color="#AC6F41"/>
</linearGradient>
<linearGradient id="paint11_linear_2_415" x1="278.122" y1="-66.0913" x2="305.037" y2="315.803" gradientUnits="userSpaceOnUse">
<stop stop-color="#E8CFAD"/>
<stop offset="0.3" stop-color="#B2794C"/>
<stop offset="0.6" stop-color="#CBA178"/>
<stop offset="0.8" stop-color="#AC6F41"/>
</linearGradient>
<linearGradient id="paint12_linear_2_415" x1="294.869" y1="14.0556" x2="281.71" y2="333.746" gradientUnits="userSpaceOnUse">
<stop stop-color="#FEFEFE"/>
<stop offset="0.3" stop-color="#D6B599"/>
<stop offset="0.6" stop-color="#FEFEFE"/>
<stop offset="0.9" stop-color="#DBBEA5"/>
</linearGradient>
<linearGradient id="paint13_linear_2_415" x1="216.815" y1="146.837" x2="250.608" y2="117.828" gradientUnits="userSpaceOnUse">
<stop stop-color="#AC6F41" stop-opacity="0"/>
<stop offset="0.5" stop-color="#AC6F41" stop-opacity="0.7"/>
<stop offset="1" stop-color="#AC6F41" stop-opacity="0"/>
</linearGradient>
<linearGradient id="paint14_linear_2_415" x1="113.342" y1="200.666" x2="76.2591" y2="206.947" gradientUnits="userSpaceOnUse">
<stop stop-color="#934A21"/>
<stop offset="1" stop-color="#AC6F41" stop-opacity="0"/>
</linearGradient>
<linearGradient id="paint15_linear_2_415" x1="14.0555" y1="145.64" x2="52.0355" y2="118.127" gradientUnits="userSpaceOnUse">
<stop stop-color="#AC6F41" stop-opacity="0"/>
<stop offset="0.5" stop-color="#AC6F41" stop-opacity="0.7"/>
<stop offset="1" stop-color="#AC6F41" stop-opacity="0"/>
</linearGradient>
<linearGradient id="paint16_linear_2_415" x1="172.555" y1="75.6608" x2="219.806" y2="77.1561" gradientUnits="userSpaceOnUse">
<stop stop-color="#934A21"/>
<stop offset="1" stop-color="#AC6F41" stop-opacity="0"/>
</linearGradient>
<linearGradient id="paint17_linear_2_415" x1="198.274" y1="-78.0535" x2="226.983" y2="328.064" gradientUnits="userSpaceOnUse">
<stop stop-color="#E8CFAD"/>
<stop offset="0.3" stop-color="#B2794C"/>
<stop offset="0.6" stop-color="#CBA178"/>
<stop offset="0.8" stop-color="#AC6F41"/>
</linearGradient>
<radialGradient id="paint18_radial_2_415" cx="0" cy="0" r="1" gradientUnits="userSpaceOnUse" gradientTransform="translate(142.35 142.65) scale(96.894 96.894)">
<stop offset="0.2" stop-color="#FEFEFE" stop-opacity="0"/>
<stop offset="0.6" stop-color="#FEFEFE"/>
<stop offset="0.9" stop-color="#DBBEA5"/>
</radialGradient>
<linearGradient id="paint19_linear_2_415" x1="114.837" y1="250.608" x2="144.743" y2="217.712" gradientUnits="userSpaceOnUse">
<stop stop-color="#AC6F41" stop-opacity="0"/>
<stop offset="0.5" stop-color="#AC6F41" stop-opacity="0.7"/>
<stop offset="1" stop-color="#AC6F41" stop-opacity="0"/>
</linearGradient>
<linearGradient id="paint20_linear_2_415" x1="116.931" y1="50.2415" x2="150.724" y2="16.1491" gradientUnits="userSpaceOnUse">
<stop stop-color="#AC6F41" stop-opacity="0"/>
<stop offset="0.5" stop-color="#AC6F41" stop-opacity="0.7"/>
<stop offset="1" stop-color="#AC6F41" stop-opacity="0"/>
</linearGradient>
<linearGradient id="paint21_linear_2_415" x1="187.807" y1="-77.4554" x2="216.516" y2="328.662" gradientUnits="userSpaceOnUse">
<stop stop-color="#E8CFAD"/>
<stop offset="0.3" stop-color="#B2794C"/>
<stop offset="0.6" stop-color="#CBA178"/>
<stop offset="0.8" stop-color="#AC6F41"/>
</linearGradient>
<radialGradient id="paint22_radial_2_415" cx="0" cy="0" r="1" gradientUnits="userSpaceOnUse" gradientTransform="translate(142.35 142.65) scale(96.894 96.894)">
<stop offset="0.2" stop-color="#FEFEFE" stop-opacity="0"/>
<stop offset="0.6" stop-color="#FEFEFE"/>
<stop offset="0.9" stop-color="#DBBEA5"/>
</radialGradient>
<linearGradient id="paint23_linear_2_415" x1="211.432" y1="178.237" x2="206.946" y2="220.703" gradientUnits="userSpaceOnUse">
<stop stop-color="#934A21"/>
<stop offset="1" stop-color="#AC6F41" stop-opacity="0"/>
</linearGradient>
<linearGradient id="paint24_linear_2_415" x1="74.7639" y1="110.651" x2="77.4555" y2="76.8572" gradientUnits="userSpaceOnUse">
<stop stop-color="#934A21"/>
<stop offset="1" stop-color="#AC6F41" stop-opacity="0"/>
</linearGradient>
<linearGradient id="paint25_linear_2_415" x1="273.337" y1="-65.7922" x2="300.551" y2="316.102" gradientUnits="userSpaceOnUse">
<stop stop-color="#E8CFAD"/>
<stop offset="0.3" stop-color="#B2794C"/>
<stop offset="0.6" stop-color="#CBA178"/>
<stop offset="0.8" stop-color="#AC6F41"/>
</linearGradient>
<radialGradient id="paint26_radial_2_415" cx="0" cy="0" r="1" gradientUnits="userSpaceOnUse" gradientTransform="translate(142.35 146.238) scale(109.155 109.155)">
<stop offset="0.2" stop-color="#FEFEFE" stop-opacity="0"/>
<stop offset="0.6" stop-color="#FEFEFE"/>
<stop offset="0.9" stop-color="#DBBEA5"/>
</radialGradient>
</defs>
</svg>
