<svg width="604" height="586" viewBox="0 0 604 586" fill="none" xmlns="http://www.w3.org/2000/svg">
<path fill-rule="evenodd" clip-rule="evenodd" d="M603.382 225.789L525.618 300.583C494.639 330.623 453.544 347.175 409.92 347.175C369.458 347.175 332.157 333.688 302.442 308.553L240.484 368.633C208.24 399.286 166.513 414.612 124.787 414.612C82.4274 414.612 40.7004 399.286 8.45683 368.633L0.87043 360.663L78.6341 285.256C108.981 255.216 150.708 238.663 194.331 238.663C234.162 238.663 271.463 252.764 301.81 277.9L363.136 217.82C426.991 155.9 531.308 155.9 595.163 217.82L603.382 225.789ZM285.372 293.226C260.083 272.382 227.839 260.734 194.331 260.734C156.398 260.734 120.993 275.447 94.4398 301.196L33.7459 360.663C88.7495 406.029 172.203 403.577 224.678 352.693L285.372 293.226ZM569.874 225.789C514.87 180.423 431.416 182.875 378.941 233.146L318.248 292.613C343.537 314.07 375.148 325.105 409.288 325.105C447.222 325.105 482.626 311.005 509.18 285.256L569.874 225.789Z" fill="url(#paint0_linear_2_393)"/>
<path style="mix-blend-mode:overlay" opacity="0.3" fill-rule="evenodd" clip-rule="evenodd" d="M603.382 225.789L525.618 300.583C494.639 330.623 453.544 347.175 409.92 347.175C369.458 347.175 332.157 333.688 302.442 308.553L240.484 368.633C208.24 399.286 166.513 414.612 124.787 414.612C82.4274 414.612 40.7004 399.286 8.45683 368.633L0.87043 360.663L78.6341 285.256C108.981 255.216 150.708 238.663 194.331 238.663C234.162 238.663 271.463 252.764 301.81 277.9L363.136 217.82C426.991 155.9 531.308 155.9 595.163 217.82L603.382 225.789ZM600.853 225.789L593.898 219.046C563.551 189.619 522.457 173.066 479.465 173.066C435.842 173.066 395.379 189.619 365.032 219.046L301.81 280.352L300.545 279.126C270.831 254.603 233.529 240.503 194.331 240.503C151.34 240.503 110.246 257.056 79.8987 286.483L3.3991 360.663L10.3538 367.406C40.7007 396.833 81.163 413.386 124.787 413.386C167.778 413.386 208.872 396.833 239.219 367.406L302.442 306.1L303.706 307.326C332.789 331.849 370.722 345.949 409.92 345.949C452.912 345.949 494.007 329.397 524.353 299.97L600.853 225.789ZM571.77 224.563L573.035 225.789L511.076 286.483C483.891 312.844 447.854 326.944 409.92 326.944C375.78 326.944 342.905 315.296 317.615 293.839L315.719 292.613L378.309 232.533C405.495 206.171 441.532 192.071 479.465 192.071C513.605 192.071 546.481 203.719 571.77 224.563ZM570.506 225.789C515.502 180.423 432.048 182.875 379.574 233.759L318.88 292.613C344.169 314.07 375.78 325.105 409.92 325.105C447.222 325.105 482.627 311.005 509.812 285.256L570.506 225.789ZM286.636 292L287.901 293.226L225.311 353.919C198.125 379.668 162.72 394.381 124.154 394.381C90.6465 394.381 57.7705 382.733 31.8493 361.276L30.5847 360.05L93.1753 299.357C119.729 273.608 155.766 258.895 193.699 258.895C227.84 258.895 260.715 270.543 286.636 292ZM285.372 293.226C259.451 272.382 227.84 260.734 193.699 260.734C156.398 260.734 120.993 274.834 94.4398 300.583L33.1138 360.05C88.1175 406.029 171.571 403.577 224.046 352.693L285.372 293.226Z" fill="url(#paint1_linear_2_393)"/>
<path style="mix-blend-mode:multiply" d="M525.618 300.583C512.973 312.844 499.064 322.653 483.891 330.01C475.672 326.945 467.453 322.04 461.763 315.296C479.465 308.553 495.271 298.744 509.18 285.256L552.171 243.568C559.126 246.634 565.448 252.151 569.874 257.669L525.618 300.583Z" fill="url(#paint2_linear_2_393)"/>
<path style="mix-blend-mode:multiply" d="M240.484 368.633C213.298 394.994 178.526 409.708 142.489 413.999C144.596 405.825 147.125 397.855 150.076 390.09C177.261 385.798 203.183 372.924 224.046 352.693L282.843 295.679C287.901 303.035 289.798 312.844 288.533 321.427L240.484 368.633Z" fill="url(#paint3_linear_2_393)"/>
<path style="mix-blend-mode:multiply" d="M78.6341 285.256C94.4398 269.317 113.406 257.669 134.27 249.699C141.435 254.603 147.757 260.325 153.237 266.865C131.109 272.995 110.878 284.643 94.4398 300.583L55.2417 339.206C48.498 335.119 42.3863 330.419 36.907 325.105L78.6341 285.256Z" fill="url(#paint4_linear_2_393)"/>
<path style="mix-blend-mode:multiply" d="M474.407 171.84C471.879 179.197 469.35 186.553 466.821 193.91C435.209 196.975 403.598 209.85 379.574 233.146L361.871 250.312C359.342 250.721 357.024 251.129 354.917 251.538C347.33 252.151 338.479 252.151 331.525 248.473L363.136 217.82C394.115 187.78 433.945 172.453 474.407 171.84Z" fill="url(#paint5_linear_2_393)"/>
<path fill-rule="evenodd" clip-rule="evenodd" d="M379.573 233.146L317.615 293.226C373.251 355.758 371.355 450.783 310.029 509.637L232.265 585.043L224.046 577.073C160.191 515.154 160.191 414.612 224.046 352.693L286.004 292.613C230.368 230.081 232.897 135.669 293.591 76.2023L371.355 0.795898L379.573 8.76562C443.428 70.6848 443.428 171.227 379.573 233.146ZM301.81 309.166L240.484 368.633C188.009 418.904 185.48 499.828 232.897 553.777L293.591 494.31C346.066 443.426 348.594 362.502 301.81 309.166ZM363.136 217.82C415.61 166.936 418.139 86.0115 371.355 32.6752L310.029 92.1422C257.554 142.413 255.025 223.337 302.442 277.287L363.136 217.82Z" fill="url(#paint6_linear_2_393)"/>
<path style="mix-blend-mode:overlay" opacity="0.3" fill-rule="evenodd" clip-rule="evenodd" d="M379.573 233.146L317.615 293.226C373.251 355.758 371.355 450.783 310.029 509.637L232.265 585.043L224.046 577.073C160.191 515.154 160.191 414.612 224.046 352.693L286.004 292.613C230.368 230.081 232.897 135.669 293.591 76.2023L371.355 0.795898L379.573 8.76562C443.428 70.6848 443.428 171.227 379.573 233.146ZM378.309 231.92C441.532 171.227 441.532 71.2979 378.309 9.99182L371.355 3.24829L294.855 77.4286C235.426 135.669 231.633 229.468 287.269 291.387L288.533 292.613L225.311 353.919C162.088 415.225 162.088 514.541 225.311 575.847L232.265 582.591L308.764 508.41C368.826 450.783 371.987 356.372 316.351 294.452L315.086 293.226L378.309 231.92ZM365.032 219.046L302.442 279.739L301.178 277.9C253.129 223.337 256.922 141.187 308.764 90.3031L371.355 30.2228L372.619 31.449C420.668 86.0114 416.875 168.162 365.032 219.046ZM371.355 32.6752L310.029 91.5289C257.554 142.413 255.025 223.337 302.442 276.673L363.768 217.82C415.61 166.936 418.139 86.0115 371.355 32.6752ZM303.074 307.94C351.123 362.502 347.33 444.652 295.487 495.536L232.897 555.616L231.633 554.39C183.584 499.828 186.744 417.678 239.219 366.794L301.81 306.1L303.074 307.94ZM301.81 309.166L240.484 368.633C188.009 419.517 185.48 500.441 232.897 553.777L294.223 494.31C346.065 444.039 348.594 363.115 301.81 309.166Z" fill="url(#paint7_radial_2_393)"/>
<path style="mix-blend-mode:multiply" d="M310.029 509.637L270.831 547.647C269.145 546.829 267.459 545.807 265.773 544.581C261.347 541.516 257.554 537.224 253.761 532.933L293.591 494.31C308.764 479.597 319.512 462.431 326.467 444.652C331.103 447.922 335.318 451.6 339.111 455.687C340.797 457.731 342.272 459.774 343.537 461.818C335.95 478.984 324.57 495.536 310.029 509.637Z" fill="url(#paint8_linear_2_393)"/>
<path style="mix-blend-mode:multiply" d="M293.591 76.2024L331.525 39.4187C338.479 43.0971 344.801 47.3886 350.491 52.9061L310.029 92.1422C295.487 105.63 285.372 122.182 278.417 139.348C273.36 136.487 268.513 133.217 263.876 129.539C262.19 128.313 260.715 127.087 259.451 125.861C267.037 108.082 278.418 90.9158 293.591 76.2024Z" fill="url(#paint9_linear_2_393)"/>
<path fill-rule="evenodd" clip-rule="evenodd" d="M379.573 577.073L371.355 585.043L293.591 509.637C232.897 450.783 230.368 355.758 286.004 293.226L224.046 233.146C160.191 171.227 160.191 70.6848 224.046 8.76562L232.265 0.795898L310.029 76.2023C371.355 135.669 373.251 230.081 317.615 292.613L379.573 352.693C443.428 414.612 443.428 515.154 379.573 577.073ZM240.484 217.82L301.81 277.287C348.594 223.337 346.066 142.413 293.591 92.1422L232.897 32.6752C185.48 86.0115 188.009 166.936 240.484 217.82ZM363.136 368.633L302.442 309.166C255.025 362.502 257.554 443.426 310.029 494.31L371.355 553.777C418.139 499.828 415.61 418.904 363.136 368.633Z" fill="url(#paint10_linear_2_393)"/>
<path style="mix-blend-mode:overlay" opacity="0.3" fill-rule="evenodd" clip-rule="evenodd" d="M379.573 577.073L371.355 585.043L293.591 509.637C232.897 450.783 230.368 355.758 286.004 293.226L224.046 233.146C160.191 171.227 160.191 70.6848 224.046 8.76562L232.265 0.795898L310.029 76.2023C371.355 135.669 373.251 230.081 317.615 292.613L379.573 352.693C443.428 414.612 443.428 515.154 379.573 577.073ZM378.309 353.919L315.086 292.613L316.351 291.387C371.987 229.468 368.826 135.669 308.764 77.4286L232.265 3.24829L225.311 9.99182C162.088 71.2979 162.088 171.227 225.311 231.92L288.533 293.226L287.269 294.452C231.633 356.372 235.426 450.783 294.855 508.41L371.355 582.591L378.309 575.847C441.532 514.541 441.532 415.225 378.309 353.919ZM301.81 279.739L239.219 219.046C186.744 168.162 183.583 86.0114 231 31.449L232.265 30.2228L294.855 90.916C347.33 141.187 350.491 223.95 303.074 278.513L301.81 279.739ZM301.81 276.673C348.594 223.337 346.066 142.413 293.591 91.5289L232.897 32.6752C185.48 86.0115 188.009 166.936 240.484 217.82L301.81 276.673ZM372.619 553.777L371.355 555.616L308.764 494.923C256.289 444.039 253.129 361.889 301.178 307.327L302.442 306.1L365.032 366.181C416.875 417.065 420.668 499.215 372.619 553.777ZM363.768 367.406L302.442 308.553C255.025 361.889 257.554 442.813 310.029 493.697L371.355 553.164C418.139 499.215 415.61 418.29 363.768 367.406Z" fill="url(#paint11_radial_2_393)"/>
<path style="mix-blend-mode:multiply" d="M426.99 478.984C421.933 480.21 416.243 481.436 411.185 480.823C408.656 480.823 406.127 480.414 403.598 479.597C408.024 439.748 394.747 398.673 363.136 368.633L341.64 347.176C346.698 341.045 353.652 337.367 361.239 334.914L379.574 352.693C414.978 387.025 430.784 433.617 426.99 478.984Z" fill="url(#paint12_linear_2_393)"/>
<path style="mix-blend-mode:multiply" d="M177.894 141.8C186.323 144.252 194.542 147.317 202.55 150.996C208.24 175.518 220.885 198.815 240.484 217.82L253.761 230.694C253.761 230.694 266.405 265.025 258.186 266.865L224.046 233.146C197.493 208.011 182.319 175.518 177.894 141.8Z" fill="url(#paint13_linear_2_393)"/>
<path fill-rule="evenodd" clip-rule="evenodd" d="M603.382 360.663L595.163 368.633C562.919 399.286 521.192 414.612 479.465 414.612C437.106 414.612 395.379 399.286 363.136 368.633L301.81 308.553C271.463 333.688 234.162 347.175 194.331 347.175C150.708 347.175 108.981 330.623 78.6341 300.583L0.87043 225.789L8.45683 217.82C72.9439 155.9 176.629 155.9 240.484 217.82L302.442 277.9C332.157 252.764 369.458 238.663 409.92 238.663C453.544 238.663 494.639 255.216 525.618 285.256L603.382 360.663ZM285.372 292.613L224.678 233.759C172.203 182.875 88.7497 180.423 33.1138 225.789L94.4398 285.256C120.993 311.005 156.398 325.105 194.331 325.105C227.839 325.105 260.083 314.07 285.372 292.613ZM570.506 360.05L509.18 301.196C482.626 275.447 447.222 260.734 409.92 260.734C375.78 260.734 344.169 272.382 318.248 293.226L379.574 352.693C432.048 403.577 515.502 406.029 570.506 360.05Z" fill="url(#paint14_linear_2_393)"/>
<path style="mix-blend-mode:overlay" opacity="0.3" fill-rule="evenodd" clip-rule="evenodd" d="M603.382 360.663L595.163 368.633C562.919 399.286 521.192 414.612 479.465 414.612C437.106 414.612 395.379 399.286 363.136 368.633L301.81 308.553C271.463 333.688 234.162 347.175 194.331 347.175C150.708 347.175 108.981 330.623 78.6341 300.583L0.87043 225.789L8.45683 217.82C72.9439 155.9 176.629 155.9 240.484 217.82L302.442 277.9C332.157 252.764 369.458 238.663 409.92 238.663C453.544 238.663 494.639 255.216 525.618 285.256L603.382 360.663ZM600.853 360.663L524.353 286.483C494.007 257.056 452.912 240.503 409.92 240.503C370.722 240.503 332.789 253.99 303.706 279.126L302.442 280.352L239.219 219.046C208.872 189.619 167.778 173.066 124.787 173.066C81.163 173.066 40.7007 189.619 10.3538 219.046L3.3991 225.789L79.8987 299.97C110.246 329.397 150.708 345.949 194.331 345.949C233.529 345.949 270.831 331.849 300.545 307.326L301.81 306.1L365.032 367.406C395.379 396.833 435.842 413.386 479.465 413.386C522.457 413.386 563.551 396.833 593.898 367.406L600.853 360.663ZM225.943 231.92L288.533 292.613L286.636 293.839C261.347 315.296 228.472 326.944 194.331 326.944C156.398 326.944 120.361 312.844 93.8073 286.483L31.2172 225.789L32.4817 224.563C58.403 203.106 90.6464 191.458 124.787 191.458C162.72 191.458 198.757 206.171 225.943 231.92ZM286.004 292.613L224.678 233.146C172.203 182.875 88.7495 180.423 33.7459 225.789L94.4398 285.256C121.626 311.005 157.03 325.105 194.331 325.105C228.472 325.105 260.083 314.07 286.004 292.613ZM511.076 299.357L573.035 360.05L571.77 361.276C546.481 382.733 513.605 394.381 479.465 394.381C441.532 394.381 405.495 380.281 378.309 353.919L315.719 293.226L317.615 292C342.905 270.543 375.78 258.895 409.92 258.895C447.854 258.895 483.891 273.608 511.076 299.357ZM570.506 360.05L509.812 300.583C482.627 274.834 447.222 260.734 409.92 260.734C375.78 260.734 344.169 272.382 318.88 293.226L379.574 352.693C432.048 403.577 515.502 406.029 570.506 360.05Z" fill="url(#paint15_radial_2_393)"/>
<defs>
<linearGradient id="paint0_linear_2_393" x1="588.841" y1="-134.69" x2="642.359" y2="648.419" gradientUnits="userSpaceOnUse">
<stop stop-color="#E8CFAD"/>
<stop offset="0.3" stop-color="#B2794C"/>
<stop offset="0.6" stop-color="#CBA178"/>
<stop offset="0.8" stop-color="#AC6F41"/>
</linearGradient>
<linearGradient id="paint1_linear_2_393" x1="624.245" y1="29.6099" x2="598.085" y2="685.038" gradientUnits="userSpaceOnUse">
<stop stop-color="#FEFEFE"/>
<stop offset="0.3" stop-color="#D6B599"/>
<stop offset="0.6" stop-color="#FEFEFE"/>
<stop offset="0.9" stop-color="#DBBEA5"/>
</linearGradient>
<linearGradient id="paint2_linear_2_393" x1="459.234" y1="301.809" x2="528.801" y2="240.225" gradientUnits="userSpaceOnUse">
<stop stop-color="#AC6F41" stop-opacity="0"/>
<stop offset="0.5" stop-color="#AC6F41" stop-opacity="0.7"/>
<stop offset="1" stop-color="#AC6F41" stop-opacity="0"/>
</linearGradient>
<linearGradient id="paint3_linear_2_393" x1="240.484" y1="412.16" x2="162.226" y2="425.828" gradientUnits="userSpaceOnUse">
<stop stop-color="#934A21"/>
<stop offset="1" stop-color="#AC6F41" stop-opacity="0"/>
</linearGradient>
<linearGradient id="paint4_linear_2_393" x1="30.5847" y1="299.357" x2="109.16" y2="240.656" gradientUnits="userSpaceOnUse">
<stop stop-color="#AC6F41" stop-opacity="0"/>
<stop offset="0.5" stop-color="#AC6F41" stop-opacity="0.7"/>
<stop offset="1" stop-color="#AC6F41" stop-opacity="0"/>
</linearGradient>
<linearGradient id="paint5_linear_2_393" x1="365.665" y1="155.9" x2="465.55" y2="159.16" gradientUnits="userSpaceOnUse">
<stop stop-color="#934A21"/>
<stop offset="1" stop-color="#AC6F41" stop-opacity="0"/>
</linearGradient>
<linearGradient id="paint6_linear_2_393" x1="420.036" y1="-159.213" x2="477.123" y2="673.571" gradientUnits="userSpaceOnUse">
<stop stop-color="#E8CFAD"/>
<stop offset="0.3" stop-color="#B2794C"/>
<stop offset="0.6" stop-color="#CBA178"/>
<stop offset="0.8" stop-color="#AC6F41"/>
</linearGradient>
<radialGradient id="paint7_radial_2_393" cx="0" cy="0" r="1" gradientUnits="userSpaceOnUse" gradientTransform="translate(301.81 293.226) scale(204.841 198.632)">
<stop offset="0.2" stop-color="#FEFEFE" stop-opacity="0"/>
<stop offset="0.6" stop-color="#FEFEFE"/>
<stop offset="0.9" stop-color="#DBBEA5"/>
</radialGradient>
<linearGradient id="paint8_linear_2_393" x1="243.645" y1="514.541" x2="304.744" y2="445.232" gradientUnits="userSpaceOnUse">
<stop stop-color="#AC6F41" stop-opacity="0"/>
<stop offset="0.5" stop-color="#AC6F41" stop-opacity="0.7"/>
<stop offset="1" stop-color="#AC6F41" stop-opacity="0"/>
</linearGradient>
<linearGradient id="paint9_linear_2_393" x1="248.071" y1="103.79" x2="317.295" y2="31.7701" gradientUnits="userSpaceOnUse">
<stop stop-color="#AC6F41" stop-opacity="0"/>
<stop offset="0.5" stop-color="#AC6F41" stop-opacity="0.7"/>
<stop offset="1" stop-color="#AC6F41" stop-opacity="0"/>
</linearGradient>
<linearGradient id="paint10_linear_2_393" x1="397.908" y1="-157.987" x2="454.995" y2="674.797" gradientUnits="userSpaceOnUse">
<stop stop-color="#E8CFAD"/>
<stop offset="0.3" stop-color="#B2794C"/>
<stop offset="0.6" stop-color="#CBA178"/>
<stop offset="0.8" stop-color="#AC6F41"/>
</linearGradient>
<radialGradient id="paint11_radial_2_393" cx="0" cy="0" r="1" gradientUnits="userSpaceOnUse" gradientTransform="translate(301.81 293.226) scale(204.841 198.632)">
<stop offset="0.2" stop-color="#FEFEFE" stop-opacity="0"/>
<stop offset="0.6" stop-color="#FEFEFE"/>
<stop offset="0.9" stop-color="#DBBEA5"/>
</radialGradient>
<linearGradient id="paint12_linear_2_393" x1="447.854" y1="366.18" x2="438.931" y2="453.292" gradientUnits="userSpaceOnUse">
<stop stop-color="#934A21"/>
<stop offset="1" stop-color="#AC6F41" stop-opacity="0"/>
</linearGradient>
<linearGradient id="paint13_linear_2_393" x1="158.927" y1="227.629" x2="164.279" y2="158.327" gradientUnits="userSpaceOnUse">
<stop stop-color="#934A21"/>
<stop offset="1" stop-color="#AC6F41" stop-opacity="0"/>
</linearGradient>
<linearGradient id="paint14_linear_2_393" x1="578.725" y1="-134.077" x2="632.839" y2="649.038" gradientUnits="userSpaceOnUse">
<stop stop-color="#E8CFAD"/>
<stop offset="0.3" stop-color="#B2794C"/>
<stop offset="0.6" stop-color="#CBA178"/>
<stop offset="0.8" stop-color="#AC6F41"/>
</linearGradient>
<radialGradient id="paint15_radial_2_393" cx="0" cy="0" r="1" gradientUnits="userSpaceOnUse" gradientTransform="translate(301.81 300.583) scale(230.762 223.767)">
<stop offset="0.2" stop-color="#FEFEFE" stop-opacity="0"/>
<stop offset="0.6" stop-color="#FEFEFE"/>
<stop offset="0.9" stop-color="#DBBEA5"/>
</radialGradient>
</defs>
</svg>
